<svg width="610" height="551" viewBox="0 0 610 551" fill="none" xmlns="http://www.w3.org/2000/svg">
<path opacity="0.06" d="M25.9963 473.264C25.9963 473.264 -7.05013 403.105 47.9475 359.723C102.945 316.33 2.07977 272.282 38.4745 218.397C74.8693 164.512 198.611 208.185 195.492 108.36C192.372 8.53421 296.357 -18.5019 330.672 11.6538C364.987 41.8094 369.708 188.792 468.213 173.018C566.718 157.233 659.265 365.515 580.236 472.983L25.9963 473.264Z" fill="#0254A7"/>
<path d="M606.929 483.507C606.929 491.357 600.565 497.732 592.704 497.732H14.2252C6.37429 497.732 0 491.368 0 483.507C0 475.656 6.36389 469.281 14.2252 469.281H592.714C600.565 469.292 606.929 475.656 606.929 483.507Z" fill="#F7F7F7"/>
<path d="M155.988 387.715L137.094 318.441H187.485V380.281H222.985V390.585H221.27L223.266 469.884H219.263V389.722H163.724L156.851 469.884H153.419L155.988 387.715Z" fill="#D3D3D3"/>
<path d="M260.898 365.026C259.422 363.976 258.06 362.759 257.436 362.406C257.176 362.26 256.354 362.073 256.125 362C255.439 361.792 254.347 361.584 253.869 361.043L251.841 358.818C250.874 357.726 249.616 357.362 248.524 358.329C247.339 359.369 247.692 360.856 248.867 361.906L250.261 363.487C251.197 364.329 251.664 365.515 252.184 366.669C253.245 369.009 255.626 370.766 257.675 372.003C258.964 372.773 260.909 372.232 263.456 371.359C264.704 370.932 266.524 369.892 264.964 369.31C263.654 368.821 259.713 369.882 257.966 366.253C257.883 366.076 257.696 365.598 257.872 365.432C258.403 364.932 259.567 366.055 260.347 366.409C261.439 366.908 262.313 366.742 262.593 366.336C262.874 365.92 261.949 365.775 260.898 365.026Z" fill="#FAB9AF"/>
<path d="M205.401 285.311C205.401 285.311 208.656 324.409 220.344 337.605C227.394 345.56 244.614 359.192 248.607 362.322C249.117 362.717 249.824 362.738 250.354 362.364C250.687 362.125 251.072 361.834 251.404 361.542C251.737 361.251 252.132 360.815 252.475 360.409C253.058 359.733 253.026 358.724 252.423 358.069C247.952 353.203 230.41 333.945 228.278 328.881C225.834 323.068 221.623 288.784 217.755 283.814C213.887 278.843 206.462 277.762 205.401 285.311Z" fill="#A75502"/>
<path d="M220.157 349.907L210.195 279.873L183.305 276.192L169.319 349.397L220.157 349.907Z" fill="#FAB9AF"/>
<path d="M221.186 348.118L210.195 279.873L183.305 276.181L168.851 348.243C168.58 349.595 169.454 350.915 170.816 351.165C175.818 352.111 187.901 354.097 201.409 354.097C211.495 354.097 217.162 352.132 219.741 350.894C220.252 350.653 220.67 350.251 220.931 349.749C221.192 349.248 221.282 348.675 221.186 348.118Z" fill="#D3D3D3"/>
<path d="M191.707 280.434C191.707 285.353 190.812 290.219 189.138 294.836C185.852 303.872 180.924 320.967 183.856 336.025C188.067 357.705 193.495 366.471 186.466 371.525C179.437 376.579 165.96 368.145 165.575 365.338C165.191 362.53 168.196 327.997 171.606 313.033C175.017 298.07 184.584 276.566 184.584 276.566L188.639 277.003C189.482 277.099 190.26 277.502 190.826 278.135C191.391 278.768 191.705 279.586 191.707 280.434ZM202.906 278.874C202.906 278.874 207.564 288.951 205.942 303.436C204.32 317.91 200.545 362.01 213.72 368.665C217.89 370.776 227.426 361.439 227.426 357.976C227.426 354.513 224.244 342.919 221.228 332.375C218.213 321.831 210.954 279.987 210.954 279.987L202.906 278.874Z" fill="#A75502"/>
<path d="M199.152 247.637C193.152 247.637 190.916 251.911 190.802 259.814C190.76 262.778 192.091 265.71 193.162 267.582C193.963 268.975 194.181 270.618 193.724 272.157L192.403 276.618C191.509 280.757 193.474 283.023 196.375 283.845C197.81 284.25 199.536 283.938 200.784 283.127C202.271 282.16 202.396 280.091 202.126 278.334L201.783 277.065C201.325 275.349 202.313 273.509 204.049 273.124C208.666 272.115 209.332 267.301 210.569 259.814C211.848 252.015 205.152 247.637 199.152 247.637Z" fill="#FAB9AF"/>
<path d="M213.118 244.175L209.676 245.225C208.413 245.611 207.064 245.618 205.797 245.246L198.924 243.249C194.764 243.249 187.891 245.599 188.754 251.61L189.523 255.852C189.825 257.547 191.249 258.816 192.965 258.961C193.121 259.544 193.662 259.96 194.265 259.96C195.014 259.96 195.617 259.356 195.617 258.618C195.617 256.705 196.958 255.072 198.83 254.646C201.118 254.136 203.572 254.012 206.13 254.698C210.903 255.977 215.936 253.024 216.414 248.095C216.445 247.783 216.455 247.471 216.455 247.149C216.466 245.162 214.823 243.707 213.118 244.175Z" fill="#0B0705"/>
<path d="M194.099 259.96C194.099 261.79 193.412 263.277 191.655 263.277C189.887 263.277 188.754 260.76 188.754 258.93C188.754 257.1 189.887 256.642 191.655 256.642C193.423 256.642 194.099 258.129 194.099 259.96Z" fill="#FAB9AF"/>
<path d="M193.371 268.008C193.371 268.008 197.852 274.174 203.426 273.332C203.426 273.332 202.272 273.883 201.991 274.788C201.991 274.788 196.698 274.393 193.371 268.008Z" fill="#E8948B"/>
<path d="M139.257 409.064L132.758 418.142C131.436 419.989 130.379 422.012 129.618 424.152L128.422 427.521C127.434 430.287 124.086 431.337 121.694 429.632C115.507 425.213 104.9 417.705 102.166 415.771C101.718 415.459 101.49 414.845 101.77 414.367C103.424 411.549 110.256 417.726 117.628 419.597C123.243 421.022 130.741 410.415 133.475 405.414C134.515 403.521 137.021 403.064 138.675 404.457C139.335 405.01 139.763 405.792 139.871 406.646C139.979 407.5 139.76 408.364 139.257 409.064Z" fill="#FAB9AF"/>
<path d="M226.126 361.563C224.847 360.919 205.651 338.52 193.485 336.607C181.329 334.683 180.05 342.368 164.692 360.284C149.333 378.201 126.29 414.044 126.29 414.044L133.33 419.161C133.33 419.161 165.971 379.48 176.203 369.882C186.445 360.284 190.605 358.038 193.797 367.002C197 375.965 204.674 391.324 220.033 382.36C235.401 373.407 226.126 361.563 226.126 361.563Z" fill="#0B0705"/>
<path d="M197.374 442.765L201.221 455.534C201.387 456.096 201.647 456.637 201.97 457.125L204.694 461.171C206.42 463.739 205.183 467.254 202.219 468.158C202.219 468.158 196.719 470.092 191.051 471.954C185.249 473.857 177.949 472.266 177.949 470.737C177.949 467.337 181.121 470.04 186.434 466.484C188.213 465.299 190.053 464.051 191.686 462.761C196.261 459.174 192.268 450.086 189.471 444.97C188.462 443.129 189.533 440.841 191.582 440.405L192.902 440.124C194.868 439.718 196.802 440.862 197.374 442.765Z" fill="#FAB9AF"/>
<path d="M187.09 355.803C187.09 355.803 167.894 354.524 172.376 375.643C176.857 396.762 190.292 450.512 190.292 450.512H202.448L199.245 374.998C199.245 375.009 189.648 355.803 187.09 355.803ZM201.388 456.002C201.388 456.002 196.583 458.457 193.755 458.498C193.755 458.498 194.629 462.751 187.911 465.507C181.194 468.273 177.752 466.547 177.752 470.56C177.752 474.564 186.341 476.29 192.07 474.564C197.8 472.848 205.235 467.69 206.961 466.547C208.667 465.403 201.388 456.002 201.388 456.002ZM130.314 421.875C130.314 421.875 125.031 419.275 123.16 416.821C123.16 416.821 120.009 420.356 113.219 416.28C106.428 412.204 105.69 408.076 102.186 410.686C98.6816 413.296 102.779 421.927 108.009 425.816C113.239 429.705 122.598 432.855 124.719 433.615C126.841 434.374 130.314 421.875 130.314 421.875Z" fill="#0B0705"/>
<path d="M184.334 276.452C184.334 276.452 174.975 302.448 176.015 319.085C177.055 335.723 177.045 349.293 167.686 338.863C158.327 328.434 164.577 275.412 184.334 276.452Z" fill="#A75502"/>
<path d="M221.54 304.954C220.053 306.784 218.368 308.458 217.859 309.248C217.641 309.581 217.339 310.631 217.235 310.923C216.913 311.796 216.559 313.21 215.821 313.782L212.764 316.247C211.266 317.411 210.694 319.013 211.859 320.51C213.117 322.132 215.072 321.789 216.538 320.354L218.701 318.669C219.876 317.515 221.457 317.006 222.985 316.423C226.115 315.238 228.59 312.274 230.368 309.706C231.481 308.094 230.919 305.526 229.994 302.136C229.536 300.472 228.33 298.028 227.446 300.014C226.708 301.678 227.779 306.888 222.902 308.864C222.663 308.957 222.029 309.165 221.831 308.926C221.228 308.198 222.777 306.774 223.308 305.786C224.046 304.403 223.89 303.248 223.391 302.864C222.871 302.448 222.601 303.654 221.54 304.954Z" fill="#FAB9AF"/>
<path d="M164.535 331.657C164.535 331.657 166.833 351.279 177.658 344.021C188.493 336.763 208.25 327.404 213.45 323.245L218.649 319.085L215.436 312.295L164.535 331.657Z" fill="#A75502"/>
<path d="M484.092 386.676L502.986 317.401H452.605V379.241H417.105V389.546H418.82L416.813 468.845H420.827V388.683H476.366L483.239 468.845H486.671L484.092 386.676Z" fill="#D3D3D3"/>
<path d="M436.363 304.735C443.122 304.735 448.602 297.668 448.602 288.951C448.602 280.233 443.122 273.166 436.363 273.166C429.603 273.166 424.124 280.233 424.124 288.951C424.124 297.668 429.603 304.735 436.363 304.735Z" fill="#0B0705"/>
<path d="M439.295 290.583C439.492 281.848 446.563 274.497 455.288 273.998C463.024 273.55 469.71 278.302 472.217 285.072C473.09 287.443 475.419 288.992 477.946 288.951C478.996 288.93 480.078 289.034 481.18 289.252C487.575 290.562 492.546 295.97 493.211 302.458C493.814 308.313 491.079 313.574 486.67 316.569C484.788 317.848 483.728 319.969 483.416 322.215C481.97 332.635 472.466 340.278 461.61 339.092C452.335 338.073 444.91 330.441 444.12 321.144C443.631 315.436 445.596 310.205 449.038 306.316C443.184 303.55 439.139 297.54 439.295 290.583ZM436.363 267.987C436.363 267.987 429.479 272.323 430.311 278.157C430.311 278.157 426.63 275.557 425.798 266.583C425.226 260.365 436.363 267.987 436.363 267.987Z" fill="#0B0705"/>
<path d="M432.12 303.56C431.954 308.625 431.621 313.72 430.903 318.846C430.155 323.952 429.104 329.12 427.16 334.122C426.193 336.617 424.997 339.061 423.5 341.359C422.013 343.657 420.172 345.778 418.009 347.505C415.857 349.241 413.434 350.603 410.897 351.498C408.349 352.392 405.729 352.839 403.139 353.016C402.391 353.068 401.746 352.496 401.694 351.757C401.652 351.071 402.12 350.478 402.765 350.343H402.775C407.465 349.355 411.729 347.203 414.754 343.959C417.812 340.735 419.683 336.524 420.827 332.073C421.971 327.602 422.481 322.881 422.678 318.098C422.793 315.706 422.824 313.293 422.803 310.871C422.793 308.448 422.751 306.015 422.668 303.581C422.624 302.329 423.08 301.111 423.934 300.194C424.788 299.277 425.97 298.737 427.223 298.691C428.475 298.646 429.694 299.099 430.612 299.952C431.53 300.804 432.072 301.986 432.12 303.238V303.56Z" fill="#FAB9AF"/>
<path d="M428.658 333.81C425.902 325.512 420.36 307.928 420.838 302.177C420.985 300.404 421.793 298.75 423.104 297.546C424.414 296.342 426.129 295.675 427.909 295.678H451.878C455.85 295.678 459.105 298.829 459.219 302.801C459.417 309.748 456.224 325.543 454.425 333.81H428.658Z" fill="#0254A7"/>
<path d="M457.16 344.333C455.923 340.852 455.548 337.124 456.068 333.467C457.274 324.971 459.396 308.968 459.198 302.177C459.147 300.433 458.418 298.777 457.166 297.561C455.914 296.346 454.236 295.666 452.491 295.668H448.935C447.583 298.808 444.713 301.231 440.252 301.231C435.801 301.231 432.931 298.808 431.58 295.668H428.242C431.871 303.436 430.561 313.678 424.321 319.657C425.486 323.754 426.453 327.883 427.181 331.22C428.169 335.744 427.732 340.465 425.954 344.749C422.886 352.101 420.464 363.893 421.181 368.561C446.398 375.705 463.825 363.061 463.825 363.061L457.16 344.333Z" fill="#0254A7"/>
<path d="M436.363 297.332L447.24 296.188L443.798 284.292L436.768 285.155L436.363 297.332Z" fill="#FAB9AF"/>
<path d="M436.768 285.155L443.797 284.282L444.868 287.994C443.298 289.772 441.27 293.599 438.712 293.599C437.901 293.599 437.163 293.37 436.498 292.944L436.768 285.155Z" fill="#FA968C"/>
<path d="M436.519 290.916C438.91 290.916 441.489 289.72 445.045 286.611C447.083 284.822 448.602 281.713 448.602 279.613V267.987H430.706C430.706 267.987 429.364 274.164 430.664 280.289C431.642 284.874 434.647 290.916 436.519 290.916Z" fill="#FAB9AF"/>
<path d="M445.565 277.408C445.565 279.675 446.646 281.516 447.988 281.516C449.329 281.516 450.806 278.542 450.806 276.275C450.806 274.008 449.329 273.301 447.988 273.301C446.657 273.301 445.565 275.141 445.565 277.408Z" fill="#FAB9AF"/>
<path d="M450.806 269.391C450.806 267.648 450.114 265.976 448.881 264.744C447.649 263.512 445.977 262.819 444.234 262.819H438.193C436.467 262.819 434.793 262.372 433.316 261.53C431.184 260.323 428.491 260.719 427.035 262.694C425.465 264.826 424.779 267.686 428.772 270.327C430.758 271.637 433.649 270.181 435.583 270.816C435.697 270.816 435.812 270.795 435.936 270.795H441.26C443.111 270.795 444.526 272.303 444.578 274.153C444.609 275.329 445.565 276.264 446.751 276.264H446.99L447.843 273.53L450.817 277.533V269.391H450.806Z" fill="#0B0705"/>
<path d="M398.169 347.609C398.169 347.609 404.428 348.336 404.844 350.323C405.25 352.309 405.167 353.712 402.297 354.42C399.427 355.127 395.163 354.721 392.647 353.972C390.131 353.224 386.46 350.187 386.273 349.595C385.618 347.463 390.027 349.303 392.21 350.094C394.384 350.884 396.931 351.55 397.004 350.395C397.087 349.241 392.803 348.045 392.46 346.693C392.117 345.342 398.169 347.609 398.169 347.609ZM416.803 350.375C416.803 350.375 423.021 349.355 423.967 351.154C424.903 352.953 425.205 354.326 422.647 355.792C420.078 357.258 415.867 358.049 413.246 358.017C410.626 357.986 406.248 356.073 405.915 355.563C404.699 353.692 409.451 354.253 411.759 354.409C414.068 354.565 416.699 354.513 416.46 353.38C416.22 352.246 411.77 352.277 411.073 351.071C410.366 349.865 416.803 350.375 416.803 350.375Z" fill="#FAB9AF"/>
<path d="M432.037 267.779C432.64 270.431 431.756 271.887 440.46 276.036C449.163 280.185 451.919 278.406 454.643 282.878C454.643 282.878 453.458 275.485 448.644 272.947C443.839 270.41 435.5 268.746 432.817 262.871C432.817 262.871 431.632 265.959 432.037 267.779Z" fill="#0B0705"/>
<path d="M458.282 300.628C459.613 302.385 460.674 303.997 461.766 305.734C462.837 307.449 463.866 309.186 464.823 310.975C466.716 314.562 468.411 318.295 469.721 322.257C471 326.219 471.905 330.441 471.873 334.943C471.842 337.189 471.541 339.508 470.833 341.775C470.158 344.042 468.983 346.225 467.464 348.066C465.957 349.917 464.126 351.435 462.203 352.6C460.269 353.775 458.251 354.627 456.224 355.283C454.196 355.938 452.158 356.343 450.13 356.686C448.102 356.957 446.085 357.165 444.078 357.217C436.061 357.518 428.272 356.52 420.64 355.085C419.902 354.95 419.423 354.243 419.558 353.504C419.683 352.828 420.286 352.371 420.952 352.402H420.973C424.799 352.589 428.605 352.735 432.401 352.662C436.186 352.61 439.95 352.413 443.61 351.893C447.27 351.373 450.837 350.562 454.04 349.262C457.222 347.941 459.967 346.049 461.589 343.615C463.243 341.213 463.856 338.25 463.71 335.047C463.544 331.834 462.619 328.465 461.371 325.179C460.133 321.872 458.511 318.617 456.691 315.467C455.788 313.879 454.838 312.319 453.842 310.787C453.343 310.018 452.834 309.269 452.314 308.521C451.815 307.793 451.253 306.992 450.785 306.378L450.744 306.316C449.173 304.236 449.589 301.273 451.669 299.703C453.749 298.132 456.712 298.548 458.282 300.628Z" fill="#FAB9AF"/>
<path d="M433.711 268.278C433.711 268.278 433.378 277.221 425.559 281.526C425.559 281.526 429.001 274.767 428.772 270.337C428.543 265.918 434.231 265.221 433.711 268.278Z" fill="#0B0705"/>
<path d="M401.777 441.185L398.97 453.642C398.117 457.448 398.647 461.451 400.488 464.893C401.517 466.817 400.602 469.209 398.543 469.936C391.888 472.307 378.994 476.82 378.422 476.332C375.49 473.846 383.237 469.749 388.966 465.444C392.824 462.543 394.301 449.015 394.644 438.637L400.789 440.186C401.268 440.332 401.642 440.706 401.777 441.185Z" fill="#FA968C"/>
<path d="M438.661 361.917L464.272 363.05C464.272 363.05 471.104 384.107 458.584 385.813C446.064 387.518 409.638 383.535 408.495 389.223C407.361 394.911 401.663 445.001 401.663 445.001H393.126C393.126 445.001 393.697 413.129 393.126 396.617C392.554 380.104 390.276 373.282 397.108 370.433C403.94 367.615 438.661 361.917 438.661 361.917Z" fill="#0B0705"/>
<path d="M409.098 411.455C409.098 411.455 410.564 423.933 410.969 426.034C411.302 427.771 412.508 429.143 413.642 430.495C414.006 430.932 414.276 431.784 414.505 432.512C414.692 433.095 414.536 433.708 414.193 434.207C408.016 442.921 396.12 443.878 396.068 443.077C395.964 441.642 398.283 439.438 400.914 438.741C403.566 438.034 405.573 435.861 406.384 433.24C407.028 431.16 407.132 428.946 406.685 426.814L404.543 417.237L409.098 411.455Z" fill="#FA968C"/>
<path d="M416.002 437.66C416.606 437.254 416.824 436.474 416.522 435.819C416.273 435.278 415.618 433.812 415.119 432.71C415.069 432.601 414.993 432.507 414.896 432.436C414.8 432.364 414.688 432.319 414.569 432.303C414.451 432.288 414.33 432.303 414.219 432.346C414.108 432.39 414.009 432.462 413.933 432.554C410.065 437.056 404.845 439.968 399.261 439.25C397.192 439.958 395.362 442.318 395.445 443.451C395.465 443.722 397.847 444.398 400.748 443.639C413.621 440.28 416.002 437.66 416.002 437.66ZM423.833 365.036L406.758 369.019L410.741 421.958L404.481 423.091C404.481 423.091 389.112 386.093 389.684 369.019C390.256 351.945 403.909 357.071 411.885 359.338C419.85 361.626 423.833 365.036 423.833 365.036ZM390.277 469.001C387.521 469.905 384.505 470.196 381.739 470.54C381.428 470.581 381.116 470.706 380.866 470.893C378.214 472.952 376.873 475.021 378.433 476.331C379.057 476.862 394.207 471.496 400.114 469.375C401.351 468.928 401.892 467.503 401.268 466.339L400.145 464.228C397.056 466.203 393.76 467.846 390.277 469.001ZM242.67 345.102H382.946V350.26H242.67V345.102Z" fill="#0B0705"/>
<path d="M249.543 350.26H252.403V469.926H249.543V350.26ZM372.64 350.26H375.5V469.926H372.64V350.26Z" fill="#76838B"/>
<path d="M547.834 470.02C547.834 472.068 546.171 473.721 544.133 473.721H529.835C527.786 473.721 526.133 472.058 526.133 470.02V436.672C526.133 434.623 527.797 432.97 529.835 432.97H544.133C546.181 432.97 547.834 434.633 547.834 436.672V470.02Z" fill="#A75502"/>
<path opacity="0.4" d="M538.695 394.579C538.695 394.579 526.996 418.36 544.237 422.415C561.478 426.471 561.977 408.523 560.209 401.13C558.441 393.736 585.8 373.854 563.235 356.27C540.67 338.687 523.087 385.501 538.695 394.579Z" fill="#0254A7"/>
<path opacity="0.4" d="M516.909 407.483C516.909 407.483 516.358 423.133 526.632 421.147C536.905 419.161 532.829 409.365 530.084 405.809C527.339 402.253 537.28 384.918 520.861 380.894C504.452 376.88 506.303 406.381 516.909 407.483Z" fill="#0254A7"/>
<path d="M518.656 392.738L531.363 432.97M526.07 400.922L523.377 407.681L517.252 404.301M552.472 369.976L541.575 432.97M558.867 379.501L549.841 385.199L544.049 377.379M556.403 392.707L547.367 398.416L541.575 390.596" stroke="#4D4D4D" stroke-miterlimit="10"/>
<path d="M71.583 470.02C71.583 472.068 69.9193 473.721 67.8811 473.721H53.5832C51.5347 473.721 49.8813 472.058 49.8813 470.02V436.672C49.8813 434.623 51.5451 432.97 53.5832 432.97H67.8811C69.9297 432.97 71.583 434.633 71.583 436.672V470.02Z" fill="#A75502"/>
<path opacity="0.4" d="M62.4432 394.579C62.4432 394.579 50.7449 418.36 67.9856 422.415C85.2263 426.471 85.7254 408.523 83.9577 401.13C82.1899 393.736 109.548 373.854 86.9837 356.27C64.4189 338.687 46.835 385.501 62.4432 394.579Z" fill="#0254A7"/>
<path opacity="0.4" d="M40.6585 407.483C40.6585 407.483 40.1074 423.133 50.3811 421.147C60.6548 419.161 56.5786 409.365 53.8334 405.809C51.0882 402.253 61.0292 384.918 44.61 380.894C28.1907 376.87 30.052 406.381 40.6585 407.483Z" fill="#0254A7"/>
<path d="M42.4048 392.738L55.1117 432.97M49.8189 400.922L47.1257 407.681L41.001 404.301M76.2207 369.976L65.323 432.97M82.6158 379.501L73.5899 385.199L67.7979 377.379M80.1513 392.707L71.115 398.416L65.323 390.596" stroke="#4D4D4D" stroke-miterlimit="10"/>
<path d="M288.33 182.023H197.967C195.585 182.023 193.651 183.957 193.651 186.338V218.064C193.651 220.445 195.585 222.379 197.967 222.379H204.185V236.469L221.447 222.379H288.33C290.711 222.379 292.645 220.445 292.645 218.064V186.338C292.644 185.194 292.189 184.097 291.38 183.288C290.571 182.479 289.474 182.024 288.33 182.023ZM200.182 200.927H253.994V202.747H200.182V200.927ZM282.07 209.246H200.182V207.426H282.07V209.246ZM282.07 196.508H200.182V194.688H282.07V196.508Z" fill="#A75502"/>
<path d="M345.459 198.816V230.542C345.459 232.923 347.393 234.858 349.774 234.858H416.657L433.919 248.948V234.858H440.137C442.519 234.858 444.453 232.923 444.453 230.542V198.816C444.453 196.435 442.519 194.501 440.137 194.501H349.774C347.393 194.501 345.459 196.425 345.459 198.816ZM437.922 215.225H384.11V213.405H437.922V215.225ZM356.034 219.905H437.922V221.724H356.034V219.905ZM356.034 207.166H437.922V208.986H356.034V207.166Z" fill="#0254A7"/>
<path opacity="0.4" d="M41.7243 329.989C43.1308 322.656 40.6132 316.011 36.1011 315.145C31.5891 314.28 26.7911 319.522 25.3846 326.854C23.9781 334.186 26.4957 340.832 31.0077 341.697C35.5198 342.563 40.3178 337.321 41.7243 329.989Z" fill="#A75502"/>
<path opacity="0.4" d="M42.7229 323.477C45.9715 320.229 45.5632 314.553 41.8109 310.801C38.0586 307.049 32.3833 306.641 29.1346 309.889C25.886 313.138 26.2943 318.814 30.0466 322.566C33.7989 326.318 39.4743 326.726 42.7229 323.477Z" fill="#A75502"/>
<path opacity="0.4" d="M579.308 329.979C580.715 322.647 578.197 316.002 573.685 315.136C569.173 314.271 564.375 319.513 562.969 326.845C561.562 334.177 564.08 340.823 568.592 341.688C573.104 342.554 577.902 337.311 579.308 329.979Z" fill="#A75502"/>
<path opacity="0.4" d="M580.321 323.481C583.57 320.232 583.161 314.557 579.409 310.804C575.657 307.052 569.981 306.644 566.733 309.893C563.484 313.142 563.892 318.817 567.645 322.569C571.397 326.321 577.072 326.729 580.321 323.481Z" fill="#A75502"/>
<path d="M160.417 528.095H46.0339C43.7358 528.095 41.8745 526.234 41.8745 523.936C41.8745 521.638 43.7358 519.776 46.0339 519.776H160.417C162.715 519.776 164.577 521.638 164.577 523.936C164.577 526.234 162.715 528.095 160.417 528.095ZM352.79 528.095H238.406C236.108 528.095 234.247 526.234 234.247 523.936C234.247 521.638 236.108 519.776 238.406 519.776H352.79C355.088 519.776 356.949 521.638 356.949 523.936C356.949 526.234 355.088 528.095 352.79 528.095ZM555.56 528.095H441.177C438.879 528.095 437.018 526.234 437.018 523.936C437.018 521.638 438.879 519.776 441.177 519.776H555.56C557.858 519.776 559.72 521.638 559.72 523.936C559.72 526.234 557.858 528.095 555.56 528.095ZM260.243 550.972H145.86C143.561 550.972 141.7 549.111 141.7 546.813C141.7 544.514 143.561 542.653 145.86 542.653H260.243C262.541 542.653 264.402 544.514 264.402 546.813C264.402 549.111 262.541 550.972 260.243 550.972ZM458.854 550.972H344.471C342.173 550.972 340.311 549.111 340.311 546.813C340.311 544.514 342.173 542.653 344.471 542.653H458.854C461.152 542.653 463.014 544.514 463.014 546.813C463.014 549.111 461.152 550.972 458.854 550.972Z" fill="#D3D3D3"/>
</svg>
