<svg width="20" height="21" viewBox="0 0 20 21" fill="none" xmlns="http://www.w3.org/2000/svg">
<g clip-path="url(#clip0_114_722)">
<path d="M15.625 17.9719H11.7609C12.41 17.3923 13.0222 16.7726 13.5938 16.1165C15.7383 13.65 16.875 11.05 16.875 8.59692C16.875 6.77356 16.1507 5.02488 14.8614 3.73556C13.572 2.44625 11.8234 1.72192 10 1.72192C8.17664 1.72192 6.42795 2.44625 5.13864 3.73556C3.84933 5.02488 3.125 6.77356 3.125 8.59692C3.125 11.05 4.25859 13.65 6.40625 16.1165C6.97782 16.7726 7.58996 17.3923 8.23906 17.9719H4.375C4.20924 17.9719 4.05027 18.0378 3.93306 18.155C3.81585 18.2722 3.75 18.4312 3.75 18.5969C3.75 18.7627 3.81585 18.9217 3.93306 19.0389C4.05027 19.1561 4.20924 19.2219 4.375 19.2219H15.625C15.7908 19.2219 15.9497 19.1561 16.0669 19.0389C16.1842 18.9217 16.25 18.7627 16.25 18.5969C16.25 18.4312 16.1842 18.2722 16.0669 18.155C15.9497 18.0378 15.7908 17.9719 15.625 17.9719ZM10 6.09692C10.4945 6.09692 10.9778 6.24355 11.3889 6.51825C11.8 6.79295 12.1205 7.1834 12.3097 7.64021C12.4989 8.09703 12.5484 8.5997 12.452 9.08465C12.3555 9.5696 12.1174 10.0151 11.7678 10.3647C11.4181 10.7143 10.9727 10.9524 10.4877 11.0489C10.0028 11.1454 9.50011 11.0958 9.04329 10.9066C8.58648 10.7174 8.19603 10.397 7.92133 9.98585C7.64662 9.57473 7.5 9.09138 7.5 8.59692C7.5 7.93388 7.76339 7.298 8.23223 6.82916C8.70107 6.36032 9.33696 6.09692 10 6.09692Z" fill="#A75502"/>
</g>
<defs>
<clipPath id="clip0_114_722">
<rect width="20" height="20" fill="white" transform="translate(0 0.471924)"/>
</clipPath>
</defs>
</svg>
