<svg width="400" height="305" viewBox="0 0 400 305" fill="none" xmlns="http://www.w3.org/2000/svg">
<g clip-path="url(#clip0_65_2629)">
<path d="M370.093 276.973C356.987 286.968 341.021 297.093 325.322 301.867C320.797 303.284 316.127 304.188 311.401 304.564C306.982 304.919 302.534 304.574 298.223 303.54C286.893 300.717 276.385 295.775 266.217 290.001C262.895 288.112 259.611 286.136 256.347 284.117C251.018 280.819 245.742 277.405 240.452 274.074C239.66 273.569 238.872 273.074 238.08 272.583H238.076C236.799 271.78 235.518 270.989 234.235 270.208C234.009 270.069 233.784 269.934 233.553 269.795C231.129 268.324 228.663 266.886 226.156 265.482C225.848 265.314 225.541 265.141 225.234 264.973C220.382 262.278 215.396 259.834 210.294 257.651C206.943 256.237 203.549 254.963 200.122 253.877H200.117C198.806 253.463 197.491 253.074 196.171 252.718C192.212 251.631 188.178 250.84 184.102 250.353C178.485 249.672 172.804 249.717 167.199 250.488C166.82 250.54 166.445 250.593 166.066 250.656C150.896 253.088 137.051 261.29 121.814 263.223C121.319 263.285 120.83 263.343 120.335 263.386C120.124 263.406 119.913 263.43 119.701 263.444C115.273 263.824 110.817 263.714 106.413 263.117C94.1092 261.492 82.1268 256.449 71.3398 250.093C46.122 235.233 25.6713 212.392 13.2376 185.94C11.1025 181.407 9.20684 176.765 7.55849 172.032C2.94984 158.909 0.411837 145.146 0.0358671 131.239C-1.13069 82.9902 26.2474 34.5823 69.2323 12.7605C112.222 -9.06122 168.774 -1.84499 203.444 31.6785C224.475 52.0147 236.645 79.572 252.473 104.192C268.3 128.807 290.796 152.321 319.811 155.907C334.592 157.734 350.06 154.201 364.227 158.797C372.071 161.345 378.763 166.22 384.154 172.431C387.779 176.646 390.812 181.337 393.17 186.373C394.898 190.014 396.3 193.801 397.361 197.69C397.558 198.407 397.74 199.123 397.918 199.839C404.975 228.704 393.698 258.963 370.093 276.973Z" fill="#F2F2F2"/>
<path d="M134.017 224.719H88.891C82.1302 224.719 76.6494 230.207 76.6494 236.978V236.978C76.6494 243.749 82.1302 249.237 88.891 249.237H134.017C140.778 249.237 146.259 243.749 146.259 236.978C146.259 230.207 140.778 224.719 134.017 224.719Z" fill="#3F3D56"/>
<path d="M120.335 242.988V263.386C115.7 263.835 111.028 263.745 106.413 263.117V242.988H120.335Z" fill="#3F3D56"/>
<path d="M167.199 250.487C166.82 250.54 166.445 250.593 166.066 250.656C150.896 253.088 137.051 261.29 121.814 263.223C121.319 263.285 120.83 263.343 120.335 263.386C120.124 263.406 119.913 263.43 119.702 263.444C115.981 259.795 112.261 255.91 108.766 251.886C106.869 249.709 105.036 247.488 103.312 245.238C98.8379 239.43 95.0454 233.459 92.5395 227.594C92.7939 224.781 91.0465 218.276 90.2112 213.296L90.2064 213.291C89.8512 211.2 89.6591 209.382 89.8367 208.214C90.8545 201.474 96.3512 202.248 98.041 195.642C99.5654 194.375 101.188 193.232 102.894 192.224C103.178 192.056 103.466 191.887 103.763 191.719L122.102 179.027L129.111 185.912L139.778 196.392L151.338 207.743L141.525 217.671C141.525 217.671 149.725 227.137 159.312 239.757C161.885 243.146 164.559 246.766 167.199 250.487Z" fill="#0B0705"/>
<path d="M325.322 242.988V301.866C320.797 303.284 316.127 304.188 311.4 304.564V242.988H325.322Z" fill="#3F3D56"/>
<path d="M343.325 238.18H298.199C291.438 238.18 285.957 243.669 285.957 250.439V250.439C285.957 257.21 291.438 262.699 298.199 262.699H343.325C350.086 262.699 355.566 257.21 355.566 250.439C355.566 243.669 350.086 238.18 343.325 238.18Z" fill="#3F3D56"/>
<path d="M233.554 269.795C231.13 268.324 228.664 266.886 226.156 265.482C225.849 265.314 225.542 265.141 225.234 264.973L226.886 264.266L231.341 262.348L231.384 262.329L231.432 262.492L233.554 269.795Z" fill="#FFB6B6"/>
<path d="M240.452 274.074C239.66 273.569 238.872 273.074 238.08 272.583H238.075C236.798 271.78 235.518 270.989 234.235 270.208C234.009 270.069 233.784 269.934 233.553 269.795C231.129 268.324 228.663 266.886 226.155 265.482C225.848 265.314 225.541 265.141 225.234 264.973C220.382 262.278 215.396 259.834 210.294 257.651C206.943 256.237 203.549 254.963 200.122 253.877H200.117L197.424 249.362L185.302 229.031L182.638 224.565C182.638 224.565 173.55 227.257 160.689 229.839C156.008 230.781 150.833 231.704 145.404 232.483C139.6 233.31 133.513 233.968 127.464 234.286C124.579 234.44 121.703 234.517 118.871 234.493C111.55 234.444 104.517 233.757 98.3576 232.122C96.3029 230.19 90.1101 227.56 85.6743 225.151H85.6695C83.8068 224.142 82.261 223.175 81.4497 222.315C76.7739 217.363 80.768 213.502 76.6107 208.099C76.5547 206.116 76.6558 204.133 76.9131 202.166C76.9563 201.839 76.9995 201.507 77.0523 201.171L78.3629 178.883L88.0986 177.594L102.913 175.633L118.962 173.508L120.729 187.363C120.729 187.363 133.225 186.729 149.057 186.94C174.486 187.287 208.513 189.825 213.122 200.719C213.554 201.743 213.986 202.777 214.418 203.81C215.445 206.281 216.463 208.765 217.471 211.262C221.124 220.3 224.61 229.425 227.792 238.05C229.77 243.415 231.633 248.588 233.347 253.43C234.725 257.324 236.002 261.007 237.168 264.396C238.234 267.492 239.199 270.343 240.058 272.901C240.192 273.3 240.322 273.694 240.452 274.074Z" fill="#0B0705"/>
<path d="M150.893 139.034L120.143 112.88L140.149 92.6026L154.107 115.498L205.846 125.77C207.401 124.598 209.264 123.904 211.207 123.773C213.149 123.643 215.088 124.081 216.786 125.035C218.485 125.988 219.869 127.416 220.771 129.144C221.673 130.872 222.053 132.826 221.866 134.767C221.678 136.708 220.931 138.552 219.714 140.075C218.498 141.597 216.866 142.733 215.017 143.343C213.167 143.953 211.181 144.01 209.299 143.509C207.418 143.008 205.722 141.969 204.42 140.519L150.893 139.034Z" fill="#A0616A"/>
<path d="M92.9661 78.5069C89.4123 90.0849 123.258 117.699 123.258 117.699C123.634 114.919 142.823 138.887 144.129 136.717C147.839 130.547 151.922 115.298 156.206 113.349C158.655 112.234 144.602 96.7417 144.602 96.7417C144.602 96.7417 137.434 87.2437 127.969 75.2063C125.356 71.7534 121.913 69.0187 117.961 67.2567C114.009 65.4947 109.676 64.7627 105.365 65.1289C105.365 65.1289 96.5199 66.9289 92.9661 78.5069Z" fill="#3F3D56"/>
<path d="M107.931 52.8757C119.417 52.8757 128.729 43.5504 128.729 32.0471C128.729 20.5439 119.417 11.2186 107.931 11.2186C96.444 11.2186 87.1323 20.5439 87.1323 32.0471C87.1323 43.5504 96.444 52.8757 107.931 52.8757Z" fill="#A0616A"/>
<path d="M118.33 66.6419C122.81 69.3096 125.491 74.211 127.029 79.1987C129.878 88.4328 131.593 97.9801 132.136 107.63L133.761 136.518L153.888 198.03C136.444 212.812 70.8759 201.39 70.8759 201.39C70.8759 201.39 68.8632 200.718 70.8759 198.702C72.8887 196.686 74.8481 198.472 72.8354 196.457C70.8227 194.441 72.2101 196.687 72.8811 194.671C73.552 192.655 72.8811 193.999 72.2102 193.327C71.5393 192.655 77.404 186.608 77.404 186.608L72.0368 151.3L65.3276 80.0796C73.3786 70.0013 89.5702 64.0602 89.5702 64.0602L93.7538 56.5186L114.672 58.1945L118.33 66.6419Z" fill="#3F3D56"/>
<path d="M125.076 20.9813C126.692 22.1887 127.89 23.8734 128.5 25.7983C128.734 22.6526 128.749 19.4945 128.544 16.3468C128.299 14.1349 126.744 13.6373 124.944 13.0608C123.318 12.54 121.479 11.9516 120.984 9.80436C114.446 3.43502 103.065 3.7562 95.2762 5.97792C90.9904 7.2005 88.5243 8.77126 88.3037 9.69143L88.2579 9.88085L88.0839 9.968C84.7802 11.6222 84.1372 16.8459 84.1797 20.9367C84.2601 28.644 86.9174 37.3975 88.4144 38.1086C88.4937 38.1462 88.5137 38.1315 88.548 38.1028C90.802 36.2989 93.5521 38.2399 94.7606 39.2951C95.4734 34.5049 97.7685 30.0921 101.279 26.7614C104.79 23.4308 109.315 21.3744 114.129 20.9207C115.702 20.7686 117.262 20.5066 118.798 20.1368C119.577 19.935 120.378 19.8297 121.182 19.8234C122.568 19.8024 123.926 20.2064 125.076 20.9813Z" fill="#0B0705"/>
<path d="M98.8689 170.414L92.5067 167.151C92.1658 166.908 91.9237 166.55 91.8245 166.143C91.7254 165.736 91.7758 165.306 91.9666 164.933C92.1574 164.56 92.4759 164.268 92.8638 164.111C93.2517 163.953 93.6832 163.941 94.0796 164.076L100.442 167.339C100.783 167.582 101.025 167.94 101.124 168.347C101.223 168.754 101.173 169.184 100.982 169.557C100.791 169.93 100.473 170.222 100.085 170.379C99.6967 170.537 99.2652 170.549 98.8689 170.414Z" fill="#A75502"/>
<path d="M77.4567 161.672L66.9907 122.652L94.9586 117.35L93.4546 144.133L130.202 182.026C132.147 181.946 134.074 182.435 135.747 183.433C137.42 184.431 138.766 185.895 139.623 187.646C140.479 189.397 140.808 191.36 140.57 193.295C140.332 195.23 139.536 197.054 138.281 198.545C137.025 200.035 135.364 201.127 133.499 201.689C131.634 202.25 129.647 202.255 127.779 201.705C125.911 201.154 124.244 200.071 122.98 198.588C121.716 197.105 120.91 195.285 120.661 193.352L77.4567 161.672Z" fill="#A0616A"/>
<path d="M64.1283 78.9032C54.635 86.4086 66.8197 128.39 66.8197 128.39C68.7062 126.317 70.8984 156.96 73.2043 155.916C79.7579 152.951 91.7696 142.725 96.4004 143.559C99.0487 144.035 96.2741 123.29 96.2741 123.29C96.2741 123.29 95.7638 111.395 94.8047 96.1039C94.6136 91.7758 93.3321 87.5664 91.0796 83.8677C88.8271 80.169 85.6768 77.1011 81.9218 74.9497C81.9218 74.9497 73.6217 71.3978 64.1283 78.9032Z" fill="#3F3D56"/>
<path d="M393.17 186.373L13.2377 185.94C11.1026 181.407 9.20694 176.765 7.55859 172.032L384.154 172.431C387.779 176.646 390.812 181.337 393.17 186.373Z" fill="#3F3D56"/>
<path d="M272.16 287.246C270.197 288.198 268.215 289.117 266.217 290.001C262.895 288.112 259.611 286.136 256.347 284.117L268.454 278.79L272.16 287.246Z" fill="#FFB6B6"/>
<path d="M360.434 220.998C358.466 223.642 356.435 226.233 354.342 228.771C352.413 231.113 350.431 233.409 348.399 235.661C347.559 236.593 346.709 237.521 345.84 238.44C344.242 240.156 342.608 241.843 340.939 243.502C337.934 244.449 331.847 246.117 325.323 247.675C320.575 248.805 315.596 249.877 311.401 250.56C309.052 250.982 306.676 251.236 304.291 251.319C301.459 251.343 298.583 251.266 295.698 251.112C292.443 250.939 289.183 250.67 285.962 250.324C277.585 249.444 269.472 248.074 262.473 246.665C259.909 246.156 257.499 245.637 255.281 245.132C251.081 244.185 247.567 243.3 245.022 242.627C242.156 241.877 240.524 241.391 240.524 241.391L233.347 253.43L229.622 259.675L226.885 264.266L226.156 265.482C225.848 265.314 225.541 265.141 225.234 264.973C220.382 262.278 215.396 259.834 210.294 257.651C206.944 256.237 203.55 254.963 200.122 253.877H200.117C198.806 253.463 197.491 253.074 196.171 252.718C196.584 251.608 197.001 250.489 197.424 249.362C198.211 247.262 199.014 245.141 199.834 243.002C201.605 238.367 203.439 233.666 205.326 228.988C206.872 225.147 208.446 221.32 210.04 217.546C210.774 215.805 212.267 214.276 214.356 212.935C215.354 212.305 216.395 211.746 217.471 211.262C223.448 208.536 232.253 206.762 241.955 205.623C242.756 205.531 243.563 205.44 244.374 205.354C252.406 204.507 260.927 204.07 268.896 203.868C272.885 203.767 276.735 203.729 280.317 203.724C281.474 203.724 282.598 203.727 283.691 203.733H283.696C286.649 203.748 289.366 203.791 291.757 203.839C292.222 203.849 292.673 203.863 293.115 203.873H293.12C293.418 203.878 293.71 203.887 293.998 203.892C299.226 204.027 302.433 204.19 302.433 204.19L303.677 194.421L303.931 192.45L304.171 190.575V190.57L304.2 190.335L304.397 190.33L307.853 190.262L336.907 189.695L352.777 189.383L350.262 200.181L346.109 217.998C346.532 220.815 360.578 218.608 360.434 220.998Z" fill="#0B0705"/>
<path d="M275.741 285.468C274.556 286.073 273.36 286.67 272.16 287.246C270.197 288.198 268.216 289.117 266.217 290.001C262.895 288.112 259.611 286.136 256.347 284.117C251.018 280.819 245.742 277.405 240.452 274.074C239.66 273.569 238.873 273.074 238.08 272.583H238.076C235.896 269.343 233.673 265.968 231.432 262.492C231.398 262.444 231.369 262.396 231.34 262.348C230.764 261.463 230.191 260.572 229.622 259.675C226.036 254.05 222.43 248.185 218.931 242.194L227.793 238.05L244.268 230.348L247.11 229.021L255.281 245.132L262.568 259.502L264.191 262.699L275.741 285.468Z" fill="#0B0705"/>
<path d="M278.225 208.122L320.231 167.553L331.874 134.539L314.7 127.061C305.879 135.523 296.344 161.88 296.344 161.88L267.438 198.708C267.213 198.786 266.988 198.868 266.767 198.966C265.465 199.541 264.333 200.442 263.48 201.583C262.628 202.724 262.084 204.066 261.901 205.479C261.718 206.892 261.902 208.329 262.435 209.65C262.968 210.971 263.833 212.132 264.945 213.021C266.057 213.91 267.38 214.496 268.784 214.723C270.189 214.951 271.628 214.811 272.964 214.319C274.299 213.826 275.484 212.997 276.406 211.912C277.328 210.826 277.954 209.521 278.225 208.122Z" fill="#FFB8B8"/>
<path d="M309.867 130.747L331.65 137.673L331.732 137.659C339.84 136.299 346.568 123.038 350.783 112.153C352.171 108.562 352.145 104.578 350.711 101.006C349.277 97.4342 346.543 94.5406 343.06 92.9103C340.483 91.7251 337.627 91.2853 334.813 91.6408C332 91.9963 329.341 93.1329 327.139 94.922L315.953 104.075L309.867 130.747Z" fill="#A75502"/>
<path d="M360.347 221.484L360.474 221.315C367.27 212.288 357.975 189.934 356.57 186.692L362.889 184.818L361.787 172.768L361.257 167.395L366.17 162.722L366.187 162.603L369.566 138.52L373.987 122.581C375.654 116.555 375.689 110.194 374.089 104.15C372.49 98.1065 369.313 92.5979 364.885 88.1899L355.847 79.2031L345.018 62.2291L326.862 61.7597L320.334 73.3744C314.262 74.6153 308.818 77.9499 304.949 82.7974C301.08 87.6448 299.032 93.6979 299.161 99.9021L299.776 130.823L293.261 169.133L293.079 176.092L286.685 182.849L287.867 189.681L283.084 191.589L280.743 201.296C279.85 202.416 273.947 209.887 273.894 211.97C273.886 212.283 274.108 212.591 274.594 212.939C278.415 215.676 299.768 221.608 309.378 218.042C319.615 214.247 359.734 221.374 360.138 221.447L360.347 221.484Z" fill="#A75502"/>
<path d="M334.355 56.5563C347.639 56.5563 358.408 45.7718 358.408 32.4684C358.408 19.1651 347.639 8.38055 334.355 8.38055C321.071 8.38055 310.302 19.1651 310.302 32.4684C310.302 45.7718 321.071 56.5563 334.355 56.5563Z" fill="#FFB8B8"/>
<path d="M331.42 56.8786C335.145 56.9368 338.868 56.6762 342.548 56.0998C346.197 55.3569 354.358 49.3676 356.633 45.7635C358.323 43.0857 359.404 38.9042 360.013 35.868C360.834 31.8502 360.802 27.7046 359.921 23.6997C359.04 19.6948 357.329 15.9198 354.899 12.6193C353.965 11.2387 352.675 10.1367 351.167 9.42973C351.033 9.37738 350.896 9.33099 350.757 9.29134C348.559 8.71227 346.585 7.48863 345.086 5.77751C344.796 5.43141 344.481 5.10671 344.144 4.80595C342.451 3.37491 340.443 2.36549 338.286 1.86019C334.803 0.926834 329.764 1.85331 323.307 4.61656C320.063 6.00487 316.515 5.50243 313.786 4.90956C313.633 4.87995 313.475 4.89099 313.327 4.9416C313.18 4.99221 313.048 5.08061 312.945 5.19802C311.784 6.28969 310.253 6.90076 308.661 6.90841C307.685 6.9513 306.662 8.30395 305.425 10.0678C305.144 10.4682 304.817 10.9356 304.58 11.2198L304.549 10.6737L303.997 11.2829C303.129 12.2403 302.518 13.402 302.22 14.6598C301.921 15.9175 301.946 17.2304 302.291 18.4762C302.635 19.722 303.289 20.8602 304.191 21.7847C305.094 22.7093 306.215 23.3902 307.451 23.764C308.432 24.0254 309.437 24.1859 310.451 24.2428C311.065 24.2982 311.7 24.3554 312.309 24.4612C314.263 24.8618 316.079 25.763 317.581 27.0766C319.084 28.3903 320.22 30.0715 320.879 31.9563C321.035 32.392 321.289 32.7859 321.621 33.1077C321.954 33.4295 322.355 33.6706 322.795 33.8123C323.235 33.954 323.702 33.9926 324.159 33.9251C324.616 33.8575 325.052 33.6857 325.432 33.4228C326.066 32.9283 326.81 32.5947 327.601 32.4505C328.392 32.3063 329.205 32.3558 329.973 32.5947C330.636 32.964 331.152 33.5505 331.435 34.2557C331.779 35.0414 332.348 35.7069 333.071 36.1671C335.543 37.4435 335.714 43.0983 334.826 47.8122C333.97 52.356 332.278 55.643 330.712 55.8055C329.506 55.9304 329.368 56.0162 329.28 56.2298L329.202 56.421L329.338 56.5998C330.004 56.8416 330.714 56.9367 331.42 56.8786Z" fill="#0B0705"/>
<path d="M315.84 123.464L306.566 104.948C293.104 105.869 266.387 121.456 266.387 121.456L215.837 132.189C214.339 131.613 212.717 131.441 211.132 131.693C209.548 131.944 208.057 132.609 206.811 133.62C205.564 134.632 204.606 135.954 204.032 137.454C203.458 138.955 203.289 140.58 203.542 142.167C203.795 143.753 204.46 145.245 205.472 146.492C206.483 147.739 207.805 148.697 209.304 149.27C210.803 149.843 212.426 150.011 214.01 149.756C215.594 149.501 217.083 148.832 218.327 147.818L282.63 143.202L315.84 123.464Z" fill="#FFB8B8"/>
<path d="M312.1 126.505L336.321 108.479L340.587 93.0815C341.414 90.0557 341.379 86.8586 340.486 83.8517C339.594 80.8447 337.879 78.1476 335.537 76.0653C332.342 73.264 328.204 71.7821 323.96 71.9192C319.716 72.0564 315.682 73.8023 312.674 76.804C303.559 85.9151 293.163 98.6258 295.396 107.44L295.419 107.529L312.1 126.505Z" fill="#A75502"/>
<path d="M282.116 174.719H217.308V183.373H282.116V174.719Z" fill="white"/>
<path d="M116.495 174.719H51.686V183.373H116.495V174.719Z" fill="white"/>
<path d="M124.062 133.104V174.307C124.063 174.832 124.271 175.336 124.642 175.707C125.013 176.078 125.516 176.287 126.04 176.287H187.01C187.535 176.287 188.037 176.078 188.408 175.707C188.779 175.336 188.987 174.832 188.988 174.307V133.104C188.986 132.579 188.778 132.076 188.407 131.706C188.036 131.335 187.534 131.126 187.01 131.126H126.04C125.516 131.126 125.014 131.335 124.643 131.706C124.273 132.076 124.064 132.579 124.062 133.104Z" fill="#3F3D56"/>
<path d="M125.493 133.617V173.799C125.493 174.079 125.605 174.348 125.803 174.547C126.001 174.745 126.269 174.857 126.549 174.857H186.503C186.783 174.857 187.051 174.745 187.249 174.547C187.447 174.348 187.559 174.079 187.559 173.799V133.617C187.559 133.336 187.448 133.066 187.25 132.867C187.052 132.669 186.783 132.557 186.503 132.556H126.549C126.269 132.557 126 132.669 125.802 132.867C125.604 133.066 125.493 133.336 125.493 133.617Z" fill="#A75502"/>
<path d="M122.787 182.343C122.899 182.483 123.041 182.596 123.202 182.674C123.364 182.751 123.541 182.791 123.72 182.79H189.005C189.184 182.79 189.36 182.749 189.521 182.672C189.682 182.595 189.824 182.483 189.937 182.345C190.049 182.206 190.129 182.043 190.171 181.87C190.213 181.696 190.216 181.515 190.179 181.34L189.166 176.519C189.124 176.323 189.033 176.14 188.903 175.987C188.772 175.834 188.605 175.717 188.418 175.645C188.282 175.592 188.138 175.565 187.992 175.565H124.73C124.584 175.565 124.439 175.592 124.303 175.645C124.116 175.717 123.949 175.834 123.818 175.987C123.688 176.14 123.597 176.323 123.555 176.519L122.542 181.34C122.506 181.515 122.509 181.696 122.552 181.869C122.594 182.043 122.674 182.204 122.787 182.343Z" fill="#0B0705"/>
<path d="M185.751 177.641H187.293C187.423 177.641 187.528 177.536 187.528 177.406V176.668C187.528 176.538 187.423 176.433 187.293 176.433H185.751C185.622 176.433 185.517 176.538 185.517 176.668V177.406C185.517 177.536 185.622 177.641 185.751 177.641Z" fill="#3F3D56"/>
<path d="M181.73 177.641H183.272C183.401 177.641 183.506 177.536 183.506 177.406V176.668C183.506 176.538 183.401 176.433 183.272 176.433H181.73C181.601 176.433 181.496 176.538 181.496 176.668V177.406C181.496 177.536 181.601 177.641 181.73 177.641Z" fill="#3F3D56"/>
<path d="M177.709 177.641H179.251C179.38 177.641 179.485 177.536 179.485 177.406V176.668C179.485 176.538 179.38 176.433 179.251 176.433H177.709C177.579 176.433 177.474 176.538 177.474 176.668V177.406C177.474 177.536 177.579 177.641 177.709 177.641Z" fill="#3F3D56"/>
<path d="M173.687 177.641H175.229C175.358 177.641 175.463 177.536 175.463 177.406V176.668C175.463 176.538 175.358 176.433 175.229 176.433H173.687C173.558 176.433 173.453 176.538 173.453 176.668V177.406C173.453 177.536 173.558 177.641 173.687 177.641Z" fill="#3F3D56"/>
<path d="M169.666 177.641H171.208C171.337 177.641 171.442 177.536 171.442 177.406V176.668C171.442 176.538 171.337 176.433 171.208 176.433H169.666C169.536 176.433 169.431 176.538 169.431 176.668V177.406C169.431 177.536 169.536 177.641 169.666 177.641Z" fill="#3F3D56"/>
<path d="M165.644 177.641H167.186C167.315 177.641 167.42 177.536 167.42 177.406V176.668C167.42 176.538 167.315 176.433 167.186 176.433H165.644C165.515 176.433 165.41 176.538 165.41 176.668V177.406C165.41 177.536 165.515 177.641 165.644 177.641Z" fill="#3F3D56"/>
<path d="M161.623 177.641H163.165C163.294 177.641 163.399 177.536 163.399 177.406V176.668C163.399 176.538 163.294 176.433 163.165 176.433H161.623C161.493 176.433 161.388 176.538 161.388 176.668V177.406C161.388 177.536 161.493 177.641 161.623 177.641Z" fill="#3F3D56"/>
<path d="M157.601 177.641H159.143C159.273 177.641 159.377 177.536 159.377 177.406V176.668C159.377 176.538 159.273 176.433 159.143 176.433H157.601C157.472 176.433 157.367 176.538 157.367 176.668V177.406C157.367 177.536 157.472 177.641 157.601 177.641Z" fill="#3F3D56"/>
<path d="M153.58 177.641H155.122C155.251 177.641 155.356 177.536 155.356 177.406V176.668C155.356 176.538 155.251 176.433 155.122 176.433H153.58C153.45 176.433 153.345 176.538 153.345 176.668V177.406C153.345 177.536 153.45 177.641 153.58 177.641Z" fill="#3F3D56"/>
<path d="M149.558 177.641H151.1C151.23 177.641 151.334 177.536 151.334 177.406V176.668C151.334 176.538 151.23 176.433 151.1 176.433H149.558C149.429 176.433 149.324 176.538 149.324 176.668V177.406C149.324 177.536 149.429 177.641 149.558 177.641Z" fill="#3F3D56"/>
<path d="M145.537 177.641H147.079C147.208 177.641 147.313 177.536 147.313 177.406V176.668C147.313 176.538 147.208 176.433 147.079 176.433H145.537C145.407 176.433 145.302 176.538 145.302 176.668V177.406C145.302 177.536 145.407 177.641 145.537 177.641Z" fill="#3F3D56"/>
<path d="M141.515 177.641H143.057C143.187 177.641 143.292 177.536 143.292 177.406V176.668C143.292 176.538 143.187 176.433 143.057 176.433H141.515C141.386 176.433 141.281 176.538 141.281 176.668V177.406C141.281 177.536 141.386 177.641 141.515 177.641Z" fill="#3F3D56"/>
<path d="M137.494 177.641H139.036C139.165 177.641 139.27 177.536 139.27 177.406V176.668C139.27 176.538 139.165 176.433 139.036 176.433H137.494C137.364 176.433 137.259 176.538 137.259 176.668V177.406C137.259 177.536 137.364 177.641 137.494 177.641Z" fill="#3F3D56"/>
<path d="M133.472 177.641H135.014C135.144 177.641 135.249 177.536 135.249 177.406V176.668C135.249 176.538 135.144 176.433 135.014 176.433H133.472C133.343 176.433 133.238 176.538 133.238 176.668V177.406C133.238 177.536 133.343 177.641 133.472 177.641Z" fill="#3F3D56"/>
<path d="M129.451 177.641H130.993C131.122 177.641 131.227 177.536 131.227 177.406V176.668C131.227 176.538 131.122 176.433 130.993 176.433H129.451C129.321 176.433 129.216 176.538 129.216 176.668V177.406C129.216 177.536 129.321 177.641 129.451 177.641Z" fill="#3F3D56"/>
<path d="M125.429 177.641H126.971C127.101 177.641 127.206 177.536 127.206 177.406V176.668C127.206 176.538 127.101 176.433 126.971 176.433H125.429C125.3 176.433 125.195 176.538 125.195 176.668V177.406C125.195 177.536 125.3 177.641 125.429 177.641Z" fill="#3F3D56"/>
<path d="M185.799 179.655H187.341C187.471 179.655 187.576 179.55 187.576 179.42V178.681C187.576 178.552 187.471 178.447 187.341 178.447H185.799C185.67 178.447 185.565 178.552 185.565 178.681V179.42C185.565 179.55 185.67 179.655 185.799 179.655Z" fill="#3F3D56"/>
<path d="M181.777 179.655H183.319C183.449 179.655 183.554 179.55 183.554 179.42V178.681C183.554 178.552 183.449 178.447 183.319 178.447H181.777C181.648 178.447 181.543 178.552 181.543 178.681V179.42C181.543 179.55 181.648 179.655 181.777 179.655Z" fill="#3F3D56"/>
<path d="M177.756 179.655H179.298C179.428 179.655 179.533 179.55 179.533 179.42V178.681C179.533 178.552 179.428 178.447 179.298 178.447H177.756C177.627 178.447 177.522 178.552 177.522 178.681V179.42C177.522 179.55 177.627 179.655 177.756 179.655Z" fill="#3F3D56"/>
<path d="M173.735 179.655H175.277C175.406 179.655 175.511 179.55 175.511 179.42V178.681C175.511 178.552 175.406 178.447 175.277 178.447H173.735C173.605 178.447 173.5 178.552 173.5 178.681V179.42C173.5 179.55 173.605 179.655 173.735 179.655Z" fill="#3F3D56"/>
<path d="M169.713 179.655H171.255C171.385 179.655 171.49 179.55 171.49 179.42V178.681C171.49 178.552 171.385 178.447 171.255 178.447H169.713C169.584 178.447 169.479 178.552 169.479 178.681V179.42C169.479 179.55 169.584 179.655 169.713 179.655Z" fill="#3F3D56"/>
<path d="M165.691 179.655H167.233C167.363 179.655 167.468 179.55 167.468 179.42V178.681C167.468 178.552 167.363 178.447 167.233 178.447H165.691C165.562 178.447 165.457 178.552 165.457 178.681V179.42C165.457 179.55 165.562 179.655 165.691 179.655Z" fill="#3F3D56"/>
<path d="M161.67 179.655H163.212C163.341 179.655 163.446 179.55 163.446 179.42V178.681C163.446 178.552 163.341 178.447 163.212 178.447H161.67C161.54 178.447 161.436 178.552 161.436 178.681V179.42C161.436 179.55 161.54 179.655 161.67 179.655Z" fill="#3F3D56"/>
<path d="M157.648 179.655H159.19C159.32 179.655 159.425 179.55 159.425 179.42V178.681C159.425 178.552 159.32 178.447 159.19 178.447H157.648C157.519 178.447 157.414 178.552 157.414 178.681V179.42C157.414 179.55 157.519 179.655 157.648 179.655Z" fill="#3F3D56"/>
<path d="M153.627 179.655H155.169C155.298 179.655 155.403 179.55 155.403 179.42V178.681C155.403 178.552 155.298 178.447 155.169 178.447H153.627C153.497 178.447 153.393 178.552 153.393 178.681V179.42C153.393 179.55 153.497 179.655 153.627 179.655Z" fill="#3F3D56"/>
<path d="M149.605 179.655H151.147C151.277 179.655 151.382 179.55 151.382 179.42V178.681C151.382 178.552 151.277 178.447 151.147 178.447H149.605C149.476 178.447 149.371 178.552 149.371 178.681V179.42C149.371 179.55 149.476 179.655 149.605 179.655Z" fill="#3F3D56"/>
<path d="M145.584 179.655H147.126C147.255 179.655 147.36 179.55 147.36 179.42V178.681C147.36 178.552 147.255 178.447 147.126 178.447H145.584C145.455 178.447 145.35 178.552 145.35 178.681V179.42C145.35 179.55 145.455 179.655 145.584 179.655Z" fill="#3F3D56"/>
<path d="M141.562 179.655H143.105C143.234 179.655 143.339 179.55 143.339 179.42V178.681C143.339 178.552 143.234 178.447 143.105 178.447H141.562C141.433 178.447 141.328 178.552 141.328 178.681V179.42C141.328 179.55 141.433 179.655 141.562 179.655Z" fill="#3F3D56"/>
<path d="M137.541 179.655H139.083C139.212 179.655 139.317 179.55 139.317 179.42V178.681C139.317 178.552 139.212 178.447 139.083 178.447H137.541C137.412 178.447 137.307 178.552 137.307 178.681V179.42C137.307 179.55 137.412 179.655 137.541 179.655Z" fill="#3F3D56"/>
<path d="M133.52 179.655H135.062C135.191 179.655 135.296 179.55 135.296 179.42V178.681C135.296 178.552 135.191 178.447 135.062 178.447H133.52C133.39 178.447 133.285 178.552 133.285 178.681V179.42C133.285 179.55 133.39 179.655 133.52 179.655Z" fill="#3F3D56"/>
<path d="M129.498 179.655H131.04C131.169 179.655 131.274 179.55 131.274 179.42V178.681C131.274 178.552 131.169 178.447 131.04 178.447H129.498C129.369 178.447 129.264 178.552 129.264 178.681V179.42C129.264 179.55 129.369 179.655 129.498 179.655Z" fill="#3F3D56"/>
<path d="M125.477 179.655H127.019C127.148 179.655 127.253 179.55 127.253 179.42V178.681C127.253 178.552 127.148 178.447 127.019 178.447H125.477C125.347 178.447 125.242 178.552 125.242 178.681V179.42C125.242 179.55 125.347 179.655 125.477 179.655Z" fill="#3F3D56"/>
<path d="M152.421 182.071H168.038C168.168 182.071 168.272 181.966 168.272 181.837V181.098C168.272 180.968 168.168 180.863 168.038 180.863H152.421C152.291 180.863 152.187 180.968 152.187 181.098V181.837C152.187 181.966 152.291 182.071 152.421 182.071Z" fill="#3F3D56"/>
</g>
<defs>
<clipPath id="clip0_65_2629">
<rect width="400" height="304.375" fill="white" transform="translate(0 0.3125)"/>
</clipPath>
</defs>
</svg>
