<svg width="24" height="25" viewBox="0 0 24 25" fill="none" xmlns="http://www.w3.org/2000/svg">
<path fill-rule="evenodd" clip-rule="evenodd" d="M2 12.9869C2 7.71904 6.21 2.97192 12.02 2.97192C17.7 2.97192 22 7.62891 22 12.9569C22 19.1362 16.96 22.9719 12 22.9719C10.36 22.9719 8.54 22.5313 7.08 21.67C6.57 21.3595 6.14 21.1292 5.59 21.3094L3.57 21.9103C3.06 22.0706 2.6 21.67 2.75 21.1292L3.42 18.8858C3.53 18.5753 3.51 18.2448 3.35 17.9844C2.49 16.4021 2 14.6695 2 12.9869ZM10.7 12.9869C10.7 13.698 11.27 14.2689 11.98 14.2789C12.69 14.2789 13.26 13.698 13.26 12.997C13.26 12.2859 12.69 11.715 11.98 11.715C11.28 11.705 10.7 12.2859 10.7 12.9869ZM15.31 12.997C15.31 13.698 15.88 14.2789 16.59 14.2789C17.3 14.2789 17.87 13.698 17.87 12.997C17.87 12.2859 17.3 11.715 16.59 11.715C15.88 11.715 15.31 12.2859 15.31 12.997ZM7.37 14.2789C6.67 14.2789 6.09 13.698 6.09 12.997C6.09 12.2859 6.66 11.715 7.37 11.715C8.08 11.715 8.65 12.2859 8.65 12.997C8.65 13.698 8.08 14.2689 7.37 14.2789Z" fill="#01264B"/>
</svg>
